# Blender v2.78 (sub 0) OBJ File: 'crate.blend'
# www.blender.org
o low_poly_Cube
v 0.500000 0.001467 0.500000
v -0.500000 0.001467 0.500000
v 0.500000 1.001467 0.500000
v -0.500000 1.001467 0.500000
v 0.418608 0.082859 0.500000
v -0.418608 0.082859 0.500000
v 0.418607 0.920074 0.500000
v -0.418608 0.920074 0.500000
v 0.418608 0.082859 0.453850
v -0.418608 0.082859 0.453849
v 0.418607 0.920074 0.453850
v -0.418608 0.920074 0.453849
v 0.418608 1.001467 0.418608
v -0.418607 1.001467 0.418608
v 0.418607 1.001467 -0.418608
v -0.418608 1.001467 -0.418608
v 0.418608 0.955316 0.418608
v -0.418607 0.955316 0.418608
v 0.418607 0.955317 -0.418608
v -0.418608 0.955316 -0.418608
v 0.500000 1.001467 -0.500000
v 0.500000 0.082859 0.418608
v 0.500000 0.920074 0.418608
v 0.500000 0.082859 -0.418608
v 0.500000 0.920074 -0.418607
v 0.453850 0.082859 0.418608
v 0.453850 0.920074 0.418608
v 0.453850 0.082859 -0.418608
v 0.453849 0.920074 -0.418607
v -0.500000 0.082859 0.418608
v -0.500000 0.920074 0.418608
v -0.500000 0.082859 -0.418608
v -0.499999 0.920074 -0.418607
v -0.453849 0.082859 0.418608
v -0.453849 0.920074 0.418608
v -0.453849 0.082859 -0.418608
v -0.453849 0.920074 -0.418607
v -0.500000 0.001467 -0.500000
v -0.500000 1.001467 -0.500000
v 0.418608 0.082859 -0.500000
v -0.418608 0.082859 -0.500000
v 0.418607 0.920074 -0.500000
v -0.418608 0.920074 -0.500000
v 0.418608 0.082859 -0.453850
v -0.418608 0.082859 -0.453849
v 0.418607 0.920074 -0.453850
v -0.418608 0.920074 -0.453849
v 0.500000 0.001466 -0.500000
v 0.418608 0.001467 0.418608
v -0.418607 0.001467 0.418608
v 0.418607 0.001466 -0.418608
v -0.418608 0.001467 -0.418608
v 0.418608 0.047617 0.418608
v -0.418607 0.047617 0.418608
v 0.418607 0.047617 -0.418608
v -0.418608 0.047617 -0.418608
vt 0.0284 0.0565
vt 0.1017 0.8833
vt 0.0284 0.9566
vt 0.9285 0.0565
vt 0.1017 0.1297
vt 0.8553 0.8833
vt 0.9285 0.9566
vt 0.8553 0.8833
vt 0.9285 0.9566
vt 0.9806 0.7360
vt 0.9676 0.5002
vt 0.9806 0.5002
vt 0.8553 0.1297
vt 0.9676 0.7360
vt 0.9806 0.9718
vt 0.9676 0.9718
vt 0.0284 0.0565
vt 0.1017 0.8833
vt 0.8553 0.1297
vt 0.9285 0.0565
vt 0.1017 0.1297
vt 0.8321 0.8542
vt 0.1373 0.1595
vt 0.8321 0.1595
vt 0.9676 0.0287
vt 0.9806 0.2645
vt 0.9676 0.2645
vt 0.9676 0.5003
vt 0.9806 0.7360
vt 0.9806 0.5003
vt 0.8321 0.8542
vt 0.1373 0.1595
vt 0.8321 0.1595
vt 0.9676 0.2645
vt 0.9806 0.2645
vt 0.9806 0.9718
vt 0.9676 0.7360
vt 0.9676 0.0287
vt 0.9806 0.0287
vt 0.0284 0.9566
vt 0.1017 0.1297
vt 0.1017 0.8833
vt 0.9285 0.0565
vt 0.0284 0.0565
vt 0.9285 0.9566
vt 0.8553 0.8833
vt 0.9806 0.9718
vt 0.9676 0.7360
vt 0.9806 0.7360
vt 0.8553 0.1297
vt 0.8321 0.1595
vt 0.1373 0.8542
vt 0.1373 0.1595
vt 0.9676 0.5003
vt 0.9806 0.5003
vt 0.9806 0.2645
vt 0.9676 0.0287
vt 0.9806 0.0287
vt 0.9676 0.2645
vt 0.8553 0.8833
vt 0.9285 0.0565
vt 0.9285 0.9566
vt 0.8553 0.1297
vt 0.0284 0.0565
vt 0.1017 0.8833
vt 0.0284 0.9566
vt 0.9676 0.5003
vt 0.9806 0.7360
vt 0.9676 0.7360
vt 0.1017 0.1297
vt 0.8321 0.1595
vt 0.1373 0.8542
vt 0.1373 0.1595
vt 0.9806 0.2645
vt 0.9676 0.2645
vt 0.9676 0.9718
vt 0.9806 0.0287
vt 0.9676 0.0287
vt 0.0284 0.9566
vt 0.8553 0.8833
vt 0.9806 0.7360
vt 0.9676 0.9718
vt 0.9676 0.7360
vt 0.9285 0.0565
vt 0.1017 0.1297
vt 0.0284 0.0565
vt 0.8553 0.1297
vt 0.8321 0.8542
vt 0.1373 0.1595
vt 0.8321 0.1595
vt 0.9806 0.5003
vt 0.9676 0.5003
vt 0.9806 0.0287
vt 0.9676 0.2645
vt 0.9676 0.0287
vt 0.8553 0.8833
vt 0.9285 0.9566
vt 0.8553 0.1297
vt 0.1017 0.8833
vt 0.0284 0.9566
vt 0.9806 0.7360
vt 0.9676 0.9718
vt 0.9676 0.7360
vt 0.8321 0.8542
vt 0.1373 0.1595
vt 0.8321 0.1595
vt 0.9806 0.5003
vt 0.9676 0.5003
vt 0.9806 0.0287
vt 0.9676 0.2645
vt 0.9676 0.0287
vt 0.9806 0.2645
vt 0.1373 0.8542
vt 0.9806 0.0287
vt 0.1373 0.8542
vt 0.9676 0.9718
vt 0.9676 0.9718
vt 0.8321 0.8542
vt 0.9806 0.5003
vt 0.8321 0.8542
vt 0.9806 0.9718
vt 0.1017 0.8833
vt 0.9806 0.9718
vt 0.1373 0.8542
vt 0.9806 0.2645
vt 0.1017 0.1297
vt 0.9806 0.9718
vt 0.1373 0.8542
vn -0.0000 1.0000 -0.0000
vn -0.0000 -0.0000 1.0000
vn 0.0000 -1.0000 0.0000
vn -1.0000 -0.0000 0.0000
vn 1.0000 0.0000 0.0000
vn -0.0000 0.0000 -1.0000
s off
f 3/1/1 14/2/1 4/3/1
f 21/4/1 13/5/1 3/1/1
f 4/3/1 16/6/1 39/7/1
f 4/3/2 7/8/2 3/9/2
f 16/10/2 19/11/2 15/12/2
f 21/4/1 16/6/1 15/13/1
f 8/14/3 11/15/3 7/16/3
f 2/17/2 8/18/2 4/3/2
f 3/9/2 5/19/2 1/20/2
f 1/20/2 6/21/2 2/17/2
f 11/22/2 10/23/2 9/24/2
f 7/25/4 9/26/4 5/27/4
f 6/28/5 12/29/5 8/14/5
f 5/27/1 10/30/1 6/28/1
f 19/31/1 18/32/1 17/33/1
f 15/12/4 17/34/4 13/35/4
f 14/36/5 20/37/5 16/10/5
f 13/35/6 18/38/6 14/39/6
f 3/40/5 22/41/5 23/42/5
f 48/43/5 22/41/5 1/44/5
f 21/45/5 23/42/5 25/46/5
f 25/47/2 28/48/2 24/49/2
f 21/45/5 24/50/5 48/43/5
f 28/51/5 27/52/5 26/53/5
f 24/49/1 26/54/1 22/55/1
f 23/56/3 29/57/3 25/58/3
f 22/55/6 27/59/6 23/56/6
f 31/60/4 2/61/4 4/62/4
f 30/63/4 38/64/4 2/61/4
f 33/65/4 4/62/4 39/66/4
f 32/67/2 37/68/2 33/69/2
f 32/70/4 39/66/4 38/64/4
f 35/71/4 36/72/4 34/73/4
f 34/74/1 32/67/1 30/75/1
f 37/68/3 31/76/3 33/69/3
f 35/77/6 30/75/6 31/78/6
f 21/79/6 43/80/6 39/7/6
f 46/81/3 43/82/3 42/83/3
f 43/80/6 38/84/6 39/7/6
f 40/85/6 21/79/6 48/86/6
f 41/87/6 48/86/6 38/84/6
f 45/88/6 46/89/6 44/90/6
f 44/91/4 42/83/4 40/92/4
f 47/93/5 41/94/5 43/95/5
f 41/94/1 44/91/1 40/92/1
f 50/96/3 1/20/3 2/97/3
f 49/98/3 48/86/3 1/20/3
f 52/99/3 2/97/3 38/100/3
f 55/101/2 52/102/2 51/103/2
f 48/86/3 52/99/3 38/100/3
f 54/104/3 55/105/3 53/106/3
f 53/107/4 51/103/4 49/108/4
f 56/109/5 50/110/5 52/111/5
f 54/112/6 49/108/6 50/110/6
f 3/1/1 13/5/1 14/2/1
f 21/4/1 15/13/1 13/5/1
f 4/3/1 14/2/1 16/6/1
f 4/3/2 8/18/2 7/8/2
f 16/10/2 20/37/2 19/11/2
f 21/4/1 39/7/1 16/6/1
f 8/14/3 12/29/3 11/15/3
f 2/17/2 6/21/2 8/18/2
f 3/9/2 7/8/2 5/19/2
f 1/20/2 5/19/2 6/21/2
f 11/22/2 12/113/2 10/23/2
f 7/25/4 11/114/4 9/26/4
f 6/28/5 10/30/5 12/29/5
f 5/27/1 9/26/1 10/30/1
f 19/31/1 20/115/1 18/32/1
f 15/12/4 19/11/4 17/34/4
f 14/36/5 18/116/5 20/37/5
f 13/35/6 17/34/6 18/38/6
f 3/40/5 1/44/5 22/41/5
f 48/43/5 24/50/5 22/41/5
f 21/45/5 3/40/5 23/42/5
f 25/47/2 29/117/2 28/48/2
f 21/45/5 25/46/5 24/50/5
f 28/51/5 29/118/5 27/52/5
f 24/49/1 28/48/1 26/54/1
f 23/56/3 27/59/3 29/57/3
f 22/55/6 26/54/6 27/59/6
f 31/60/4 30/63/4 2/61/4
f 30/63/4 32/70/4 38/64/4
f 33/65/4 31/60/4 4/62/4
f 32/67/2 36/119/2 37/68/2
f 32/70/4 33/65/4 39/66/4
f 35/71/4 37/120/4 36/72/4
f 34/74/1 36/119/1 32/67/1
f 37/68/3 35/121/3 31/76/3
f 35/77/6 34/74/6 30/75/6
f 21/79/6 42/122/6 43/80/6
f 46/81/3 47/123/3 43/82/3
f 43/80/6 41/87/6 38/84/6
f 40/85/6 42/122/6 21/79/6
f 41/87/6 40/85/6 48/86/6
f 45/88/6 47/124/6 46/89/6
f 44/91/4 46/81/4 42/83/4
f 47/93/5 45/125/5 41/94/5
f 41/94/1 45/125/1 44/91/1
f 50/96/3 49/98/3 1/20/3
f 49/98/3 51/126/3 48/86/3
f 52/99/3 50/96/3 2/97/3
f 55/101/2 56/127/2 52/102/2
f 48/86/3 51/126/3 52/99/3
f 54/104/3 56/128/3 55/105/3
f 53/107/4 55/101/4 51/103/4
f 56/109/5 54/112/5 50/110/5
f 54/112/6 53/107/6 49/108/6
