# Blender v2.78 (sub 0) OBJ File: 'meat.blend'
# www.blender.org
o Circle
v 0.533912 -0.533911 0.533303
v 0.755065 0.000000 0.533303
v 0.533912 0.533911 0.533303
v 0.570925 -0.570925 0.351303
v 0.807409 0.000000 0.351303
v 0.488334 -0.488334 -0.182000
v 0.690608 0.000000 -0.182000
v 0.225882 -0.225881 -0.749164
v 0.319445 0.000000 -0.749164
v 0.104785 -0.104785 -0.981956
v 0.148189 0.000000 -0.981956
v 0.104785 0.104785 -0.981956
v 0.080093 -0.080092 -0.981956
v 0.113268 0.000000 -0.981956
v 0.080093 0.080093 -0.981956
v 0.080093 -0.080092 -1.367119
v 0.113268 0.000000 -1.367119
v 0.080093 0.080093 -1.367119
v 0.394372 -0.394372 0.431672
v 0.557726 0.000000 0.431672
v 0.394372 0.394372 0.431672
v 0.568112 0.568112 0.333143
v 0.567283 0.567283 0.369209
v 0.578015 0.553807 0.351303
v 0.480997 0.480997 -0.197856
v 0.491146 0.491146 -0.163841
v 0.495424 0.471216 -0.182000
v 0.217910 0.217910 -0.764488
v 0.233218 0.233218 -0.733309
v 0.232972 0.208764 -0.749164
v 0.526621 0.557886 0.334284
v 0.525844 0.557109 0.368069
v 0.442434 0.470049 -0.196780
v 0.451941 0.479556 -0.164916
v 0.187748 0.203713 -0.763502
v 0.202087 0.218053 -0.734295
v 0.075048 0.113268 -1.415516
v 0.075048 -0.113268 -1.415516
v 0.124520 -0.080092 -1.409721
v 0.150337 0.000000 -1.388886
v 0.124520 0.080093 -1.409721
v 0.067599 0.113268 -1.474477
v 0.067599 -0.113268 -1.474477
v 0.154584 -0.080092 -1.476112
v 0.190614 0.000000 -1.476789
v 0.154584 0.080093 -1.476112
v 0.067599 0.113268 -1.474477
v 0.067599 -0.113268 -1.474477
v 0.118538 -0.080092 -1.545006
v 0.139638 0.000000 -1.574219
v 0.118538 0.080093 -1.545006
v 0.067599 0.113268 -1.474477
v 0.067599 -0.113268 -1.474477
v 0.064520 -0.080092 -1.561423
v 0.063244 0.000000 -1.597437
v 0.064520 0.080093 -1.561423
v 0.000000 0.755065 0.533303
v 0.000000 -0.755065 0.533303
v -0.533912 -0.533911 0.533303
v -0.755065 0.000000 0.533303
v -0.533912 0.533911 0.533303
v 0.000000 -0.807409 0.351303
v -0.570925 -0.570925 0.351303
v -0.807409 0.000000 0.351303
v 0.000000 -0.690608 -0.182000
v -0.488334 -0.488334 -0.182000
v -0.690608 0.000000 -0.182000
v 0.000000 -0.319445 -0.749164
v -0.225882 -0.225881 -0.749164
v -0.319445 0.000000 -0.749164
v 0.000000 0.148189 -0.981956
v 0.000000 -0.148189 -0.981956
v -0.104785 -0.104785 -0.981956
v -0.148189 0.000000 -0.981956
v -0.104785 0.104785 -0.981956
v 0.000000 0.113268 -0.981956
v 0.000000 -0.113268 -0.981956
v -0.080093 -0.080092 -0.981956
v -0.113268 0.000000 -0.981956
v -0.080093 0.080093 -0.981956
v 0.000000 0.113268 -1.367119
v 0.000000 -0.113268 -1.367119
v -0.080093 -0.080092 -1.367119
v -0.113268 0.000000 -1.367119
v -0.080093 0.080093 -1.367119
v 0.000000 0.557726 0.431672
v 0.000000 -0.557726 0.431672
v -0.394372 -0.394372 0.431672
v -0.557726 0.000000 0.431672
v -0.394372 0.394372 0.431672
v 0.000000 0.000000 0.431672
v 0.000000 0.802259 0.369209
v 0.000000 0.803432 0.333143
v -0.568112 0.568112 0.333143
v -0.567283 0.567283 0.369209
v -0.578015 0.553807 0.351303
v 0.000000 0.694586 -0.163841
v 0.000000 0.680233 -0.197856
v -0.480997 0.480997 -0.197856
v -0.491146 0.491146 -0.163841
v -0.495424 0.471216 -0.182000
v 0.000000 0.329821 -0.733309
v 0.000000 0.308172 -0.764488
v -0.217910 0.217910 -0.764488
v -0.233218 0.233218 -0.733309
v -0.232972 0.208764 -0.749164
v -0.526621 0.557886 0.334284
v -0.525844 0.557109 0.368069
v -0.442434 0.470049 -0.196780
v -0.451941 0.479556 -0.164916
v -0.187748 0.203713 -0.763502
v -0.202087 0.218053 -0.734295
v 0.000000 0.778324 0.334284
v 0.000000 0.777225 0.368069
v 0.000000 0.656684 -0.196780
v 0.000000 0.670130 -0.164916
v 0.000000 0.288266 -0.763502
v 0.000000 0.308546 -0.734295
v -0.075048 0.113268 -1.415516
v -0.075048 -0.113268 -1.415516
v -0.124520 -0.080092 -1.409721
v -0.150337 0.000000 -1.388886
v -0.124520 0.080093 -1.409721
v -0.067599 0.113268 -1.474477
v -0.067599 -0.113268 -1.474477
v -0.154584 -0.080092 -1.476112
v -0.190614 0.000000 -1.476789
v -0.154584 0.080093 -1.476112
v -0.067599 0.113268 -1.474477
v -0.067599 -0.113268 -1.474477
v -0.118538 -0.080092 -1.545006
v -0.139638 0.000000 -1.574219
v -0.118538 0.080093 -1.545006
v -0.067599 0.113268 -1.474477
v -0.067599 -0.113268 -1.474477
v -0.064520 -0.080092 -1.561423
v -0.063244 0.000000 -1.597437
v -0.064520 0.080093 -1.561423
v 0.000000 0.113268 -1.455674
v 0.000000 -0.113268 -1.455674
v 0.000000 -0.080092 -1.537289
v 0.000000 0.000000 -1.571095
v 0.000000 0.080093 -1.537289
vt 0.3228 0.5945
vt 0.5097 0.7113
vt 0.2931 0.7113
vt 0.3873 0.0279
vt 0.3458 0.2527
vt 0.2948 0.2250
vt 0.1825 0.5194
vt 0.3188 0.5871
vt 0.3093 0.5892
vt 0.2577 0.3915
vt 0.2136 0.3673
vt 0.1371 0.4973
vt 0.4617 0.0592
vt 0.4728 0.3474
vt 0.1057 0.6442
vt 0.0659 0.6174
vt 0.3801 0.4641
vt 0.5313 0.7095
vt 0.6129 0.6580
vt 0.6196 0.6925
vt 0.6893 0.4878
vt 0.6059 0.5184
vt 0.5506 0.5746
vt 0.5130 0.6441
vt 0.6246 0.6244
vt 0.5288 0.6475
vt 0.6522 0.6011
vt 0.6295 0.6862
vt 0.6567 0.6116
vt 0.6338 0.6311
vt 0.6238 0.6589
vt 0.6904 0.5959
vt 0.1291 0.8610
vt 0.3795 0.9143
vt 0.1292 0.9145
vt 0.1279 0.7560
vt 0.3743 0.8068
vt 0.1286 0.8092
vt 0.3823 0.9724
vt 0.1290 0.9715
vt 0.3731 0.8600
vt 0.0876 0.4649
vt 0.1537 0.3320
vt 0.2887 0.0208
vt 0.2252 0.1883
vt 0.9405 0.3464
vt 0.7971 0.2029
vt 0.9999 0.2029
vt 0.9405 0.0595
vt 0.7971 0.0001
vt 0.1861 0.5276
vt 0.1738 0.5208
vt 0.5236 0.6401
vt 0.5183 0.6541
vt 0.5246 0.6576
vt 0.1719 0.5337
vt 0.1122 0.6448
vt 0.2731 0.7069
vt 0.1243 0.6538
vt 0.1771 0.5359
vt 0.1200 0.6490
vt 0.3109 0.6008
vt 0.2881 0.7074
vt 0.2792 0.7063
vt 0.5254 0.7071
vt 0.5153 0.7092
vt 0.3158 0.6042
vt 0.4150 0.9255
vt 0.4017 0.8228
vt 0.3965 0.8583
vt 0.4081 0.8944
vt 0.4057 0.7958
vt 0.4341 0.8806
vt 0.4325 0.7986
vt 0.4272 0.8308
vt 0.4537 0.9242
vt 0.4287 0.8549
vt 0.4552 0.8504
vt 0.4587 0.8760
vt 0.4333 0.7988
vt 0.4495 0.8272
vt 0.4545 0.9238
vt 0.4799 0.8780
vt 0.4554 0.9239
vt 0.4797 0.8450
vt 0.4336 0.7982
vt 0.4655 0.8168
vt 0.5147 0.8946
vt 0.4946 0.9505
vt 0.5182 0.8353
vt 0.4856 0.7860
vt 0.4442 0.9724
vt 0.4361 0.7591
vt 0.3782 0.7521
vt 0.3228 0.5945
vt 0.3458 0.2527
vt 0.2948 0.2250
vt 0.3188 0.5871
vt 0.3801 0.4641
vt 0.1825 0.5194
vt 0.2577 0.3915
vt 0.2136 0.3673
vt 0.4728 0.3474
vt 0.1371 0.4973
vt 0.5288 0.6475
vt 0.6192 0.2291
vt 0.5130 0.6441
vt 0.6059 0.5184
vt 0.6246 0.6244
vt 0.5506 0.5746
vt 0.6129 0.6580
vt 0.6338 0.6311
vt 0.6522 0.6011
vt 0.6238 0.6589
vt 0.6567 0.6116
vt 0.3795 0.9143
vt 0.1291 0.8610
vt 0.1292 0.9145
vt 0.3743 0.8068
vt 0.1286 0.8092
vt 0.3731 0.8600
vt 0.0876 0.4649
vt 0.2252 0.1883
vt 0.9405 0.3464
vt 0.9999 0.2029
vt 0.9405 0.0595
vt 0.1861 0.5276
vt 0.1738 0.5208
vt 0.3093 0.5892
vt 0.5236 0.6401
vt 0.5183 0.6541
vt 0.5246 0.6576
vt 0.1719 0.5337
vt 0.1771 0.5359
vt 0.3109 0.6008
vt 0.3158 0.6042
vt 0.4150 0.9255
vt 0.4017 0.8228
vt 0.4081 0.8944
vt 0.4057 0.7958
vt 0.4341 0.8806
vt 0.3965 0.8583
vt 0.4325 0.7986
vt 0.4537 0.9242
vt 0.4272 0.8308
vt 0.4552 0.8504
vt 0.4287 0.8549
vt 0.4333 0.7988
vt 0.4587 0.8760
vt 0.4545 0.9238
vt 0.4799 0.8780
vt 0.4797 0.8450
vt 0.4495 0.8272
vt 0.4336 0.7982
vt 0.4554 0.9239
vt 0.4655 0.8168
vt 0.6871 0.6078
vt 0.0259 0.5689
vt 0.7971 0.4058
vt 0.1537 0.3320
vn 0.3275 0.7906 -0.5174
vn 0.3698 -0.8929 0.2568
vn 0.9055 0.3751 -0.1983
vn 0.8929 -0.3698 0.2568
vn 0.8929 0.3698 0.2568
vn 0.3751 -0.9055 -0.1983
vn 0.3698 0.8929 0.2568
vn 0.9055 -0.3751 -0.1983
vn 0.3165 0.7641 -0.5621
vn 0.3275 -0.7906 -0.5174
vn 0.7906 0.3275 -0.5174
vn 0.7906 -0.3275 -0.5174
vn 0.7641 0.3165 -0.5621
vn 0.7641 -0.3165 -0.5621
vn 0.3165 -0.7641 -0.5621
vn 0.0000 0.0000 -1.0000
vn 0.9239 0.3827 0.0000
vn 0.3827 -0.9239 0.0000
vn 0.3827 0.9239 0.0000
vn 0.9239 -0.3827 0.0000
vn -0.4498 -0.1863 0.8735
vn -0.1863 0.4498 0.8735
vn -0.1863 -0.4498 0.8735
vn -0.4498 0.1863 0.8735
vn -0.0000 0.0000 1.0000
vn 0.8022 0.5961 0.0322
vn 0.7683 0.5134 -0.3824
vn 0.7641 0.3455 -0.5448
vn -0.4210 0.8788 -0.2248
vn 0.0153 0.0369 0.9992
vn 0.0190 0.0455 -0.9988
vn 0.3751 0.9055 -0.1983
vn 0.3860 0.9220 0.0300
vn 0.3621 0.8588 -0.3624
vn 0.3452 0.7709 -0.5353
vn 0.0165 0.0399 0.9991
vn -0.2728 0.9412 -0.1994
vn 0.0172 0.0416 0.9990
vn -0.2388 0.9709 0.0168
vn 0.0207 0.0463 -0.9987
vn 0.0185 0.0439 -0.9989
vn 0.3291 0.7945 0.5103
vn 0.4721 -0.3614 0.8041
vn 0.6653 0.2756 0.6938
vn 0.4523 -0.7569 0.4717
vn 0.8455 0.3721 0.3829
vn 0.3544 -0.9212 0.1605
vn 0.5613 0.8246 -0.0709
vn 0.8425 -0.3757 0.3860
vn 0.8220 -0.3734 -0.4301
vn 0.8220 0.3734 -0.4301
vn 0.3474 -0.9199 -0.1818
vn 0.2676 -0.3916 -0.8804
vn 0.2676 0.3916 -0.8804
vn 0.1087 -0.9275 -0.3577
vn -0.1042 0.9213 -0.3745
vn -0.3543 -0.3882 -0.8507
vn -0.3258 0.3676 -0.8710
vn -0.1307 -0.9278 -0.3494
vn 0.0000 1.0000 0.0000
vn 0.0000 -1.0000 0.0000
vn -0.3275 0.7906 -0.5174
vn -0.3698 -0.8929 0.2568
vn -0.9055 0.3751 -0.1983
vn -0.8929 -0.3698 0.2568
vn -0.8929 0.3698 0.2568
vn -0.3751 -0.9055 -0.1983
vn -0.3698 0.8929 0.2568
vn -0.9055 -0.3751 -0.1983
vn -0.3165 0.7641 -0.5621
vn -0.3275 -0.7906 -0.5174
vn -0.7906 0.3275 -0.5174
vn -0.7906 -0.3275 -0.5174
vn -0.7641 0.3165 -0.5621
vn -0.7641 -0.3165 -0.5621
vn -0.3165 -0.7641 -0.5621
vn -0.9239 0.3827 0.0000
vn -0.3827 -0.9239 0.0000
vn -0.3827 0.9239 0.0000
vn -0.9239 -0.3827 0.0000
vn 0.4498 -0.1863 0.8735
vn 0.1863 0.4498 0.8735
vn 0.1863 -0.4498 0.8735
vn 0.4498 0.1863 0.8735
vn -0.8022 0.5961 0.0322
vn -0.7683 0.5134 -0.3824
vn -0.7641 0.3455 -0.5448
vn 0.4210 0.8788 -0.2248
vn -0.0153 0.0369 0.9992
vn -0.0173 0.0417 -0.9990
vn -0.3751 0.9055 -0.1983
vn -0.3860 0.9220 0.0301
vn -0.3621 0.8588 -0.3624
vn -0.3452 0.7709 -0.5353
vn -0.0165 0.0399 0.9991
vn 0.2728 0.9412 -0.1994
vn -0.0172 0.0416 0.9990
vn 0.2388 0.9709 0.0168
vn -0.0145 0.0351 -0.9993
vn -0.0160 0.0386 -0.9991
vn -0.3291 0.7945 0.5103
vn -0.6653 -0.2756 0.6938
vn -0.6653 0.2756 0.6938
vn -0.3291 -0.7945 0.5103
vn -0.8455 0.3721 0.3829
vn -0.5613 -0.8246 -0.0709
vn -0.5613 0.8246 -0.0709
vn -0.8455 -0.3721 0.3829
vn -0.8220 -0.3734 -0.4301
vn -0.8220 0.3734 -0.4301
vn 0.0000 -0.9896 -0.1440
vn -0.3474 0.9199 -0.1818
vn -0.1087 0.9275 -0.3577
vn -0.2676 -0.3916 -0.8804
vn -0.2676 0.3916 -0.8804
vn 0.0000 -0.8659 -0.5002
vn 0.1307 0.9278 -0.3494
vn 0.3543 -0.3882 -0.8507
vn 0.3543 0.3882 -0.8507
vn 0.1307 -0.9278 -0.3494
vn 0.0223 0.0495 0.9985
vn 0.0173 0.0417 -0.9990
vn 0.3860 0.9220 0.0301
vn 0.3620 0.8581 -0.3641
vn 0.3444 0.7647 -0.5446
vn 0.0192 0.0456 0.9988
vn 0.0190 0.0454 0.9988
vn 0.0145 0.0351 -0.9993
vn 0.0160 0.0386 -0.9991
vn 0.4523 0.7569 0.4717
vn 0.6653 -0.2756 0.6938
vn 0.4721 0.3614 0.8041
vn 0.3291 -0.7945 0.5103
vn 0.8425 0.3757 0.3860
vn 0.5613 -0.8246 -0.0709
vn 0.3544 0.9212 0.1605
vn 0.8455 -0.3721 0.3829
vn 0.3474 0.9199 -0.1818
vn 0.1087 0.9275 -0.3577
vn -0.1307 0.9278 -0.3494
vn -0.3258 -0.3676 -0.8710
vn -0.3543 0.3882 -0.8507
vn -0.1042 -0.9213 -0.3745
vn -0.0223 0.0495 0.9985
vn -0.0190 0.0455 -0.9988
vn -0.3860 0.9220 0.0300
vn -0.3620 0.8581 -0.3641
vn -0.3444 0.7647 -0.5446
vn -0.0192 0.0456 0.9988
vn -0.0190 0.0454 0.9988
vn -0.0207 0.0463 -0.9987
vn -0.0185 0.0439 -0.9989
vn -0.4523 0.7569 0.4717
vn -0.4721 -0.3614 0.8041
vn -0.4721 0.3614 0.8041
vn -0.4523 -0.7569 0.4717
vn -0.8425 0.3757 0.3860
vn -0.3544 -0.9212 0.1605
vn -0.3544 0.9212 0.1605
vn -0.8425 -0.3757 0.3860
vn -0.3474 -0.9199 -0.1818
vn -0.1087 -0.9275 -0.3577
vn 0.1042 0.9213 -0.3745
vn 0.3258 -0.3676 -0.8710
vn 0.3258 0.3676 -0.8710
vn 0.1042 -0.9213 -0.3745
s off
f 25/1/1 102/2/1 98/3/1
f 58/4/2 4/5/2 1/6/2
f 24/7/3 27/8/3 26/9/3
f 1/6/4 5/10/4 2/11/4
f 2/11/5 24/7/5 3/12/5
f 62/13/6 6/14/6 4/5/6
f 3/12/7 92/15/7 57/16/7
f 4/5/8 7/17/8 5/10/8
f 103/18/9 12/19/9 71/20/9
f 6/14/10 68/21/10 8/22/10
f 7/17/11 9/23/11 29/24/11
f 6/14/12 9/23/12 7/17/12
f 9/23/13 11/25/13 28/26/13
f 8/22/14 11/25/14 9/23/14
f 68/21/15 10/27/15 8/22/15
f 12/19/16 76/28/16 71/20/16
f 11/25/16 13/29/16 14/30/16
f 11/25/16 15/31/16 12/19/16
f 72/32/16 13/29/16 10/27/16
f 14/33/17 18/34/17 15/35/17
f 77/36/18 16/37/18 13/38/18
f 15/35/19 81/39/19 76/40/19
f 13/38/20 17/41/20 14/33/20
f 2/11/21 21/42/21 20/43/21
f 1/6/22 87/44/22 58/4/22
f 57/16/23 21/42/23 3/12/23
f 2/11/24 19/45/24 1/6/24
f 21/46/25 91/47/25 20/48/25
f 19/49/25 91/47/25 87/50/25
f 22/51/26 23/52/26 24/7/26
f 25/1/27 26/9/27 27/8/27
f 28/26/28 29/24/28 30/53/28
f 28/26/29 36/54/29 29/24/29
f 103/18/30 35/55/30 28/26/30
f 92/15/31 32/56/31 114/57/31
f 22/51/32 97/58/32 93/59/32
f 114/57/33 31/60/33 113/61/33
f 34/62/34 115/63/34 116/64/34
f 36/54/35 117/65/35 118/66/35
f 98/3/36 33/67/36 25/1/36
f 25/1/37 34/62/37 26/9/37
f 93/59/38 31/60/38 22/51/38
f 23/52/39 31/60/39 32/56/39
f 102/2/40 36/54/40 118/66/40
f 97/58/41 34/62/41 116/64/41
f 18/34/42 37/68/42 81/39/42
f 17/41/43 39/69/43 40/70/43
f 17/41/44 41/71/44 18/34/44
f 16/37/45 38/72/45 39/69/45
f 40/70/46 46/73/46 41/71/46
f 39/69/47 43/74/47 44/75/47
f 41/71/48 42/76/48 37/68/48
f 40/70/49 44/75/49 45/77/49
f 44/75/50 50/78/50 45/77/50
f 46/73/51 50/78/51 51/79/51
f 44/75/52 48/80/52 49/81/52
f 42/76/25 51/79/25 47/82/25
f 47/82/25 56/83/25 52/84/25
f 49/81/53 55/85/53 50/78/53
f 51/79/54 55/85/54 56/83/54
f 49/81/55 53/86/55 54/87/55
f 52/84/56 143/88/56 139/89/56
f 54/87/57 142/90/57 55/85/57
f 56/83/58 142/90/58 143/88/58
f 53/86/59 141/91/59 54/87/59
f 37/68/60 139/92/60 81/39/60
f 140/93/61 38/72/61 82/94/61
f 102/2/62 99/95/62 98/3/62
f 63/96/63 58/4/63 59/97/63
f 101/98/64 67/99/64 96/100/64
f 64/101/65 59/97/65 60/102/65
f 96/100/66 64/101/66 60/102/66
f 66/103/67 62/13/67 63/96/67
f 92/15/68 61/104/68 57/16/68
f 67/99/69 63/96/69 64/101/69
f 71/20/70 104/105/70 103/18/70
f 66/103/71 68/21/71 65/106/71
f 105/107/72 67/99/72 99/95/72
f 67/99/73 69/108/73 66/103/73
f 74/109/74 70/110/74 104/105/74
f 74/109/75 69/108/75 70/110/75
f 69/108/76 72/32/76 68/21/76
f 76/28/16 75/111/16 71/20/16
f 79/112/16 73/113/16 74/109/16
f 80/114/16 74/109/16 75/111/16
f 78/115/16 72/32/16 73/113/16
f 85/116/77 79/117/77 80/118/77
f 83/119/78 77/36/78 78/120/78
f 81/39/79 80/118/79 76/40/79
f 84/121/80 78/120/80 79/117/80
f 60/102/81 90/122/81 61/104/81
f 87/44/82 59/97/82 58/4/82
f 90/122/83 57/16/83 61/104/83
f 88/123/84 60/102/84 59/97/84
f 91/47/25 90/124/25 89/125/25
f 91/47/25 88/126/25 87/50/25
f 94/127/85 96/100/85 95/128/85
f 99/95/86 101/98/86 100/129/86
f 104/105/87 106/130/87 105/107/87
f 112/131/88 104/105/88 105/107/88
f 111/132/89 103/18/89 104/105/89
f 92/15/90 108/133/90 95/128/90
f 97/58/91 94/127/91 93/59/91
f 114/57/92 107/134/92 108/133/92
f 115/63/93 110/135/93 116/64/93
f 117/65/94 112/131/94 118/66/94
f 109/136/95 98/3/95 99/95/95
f 110/135/96 99/95/96 100/129/96
f 107/134/97 93/59/97 94/127/97
f 95/128/98 107/134/98 94/127/98
f 102/2/99 112/131/99 105/107/99
f 97/58/100 110/135/100 100/129/100
f 119/137/101 85/116/101 81/39/101
f 84/121/102 121/138/102 83/119/102
f 123/139/103 84/121/103 85/116/103
f 83/119/104 120/140/104 82/94/104
f 128/141/105 122/142/105 123/139/105
f 121/138/106 125/143/106 120/140/106
f 124/144/107 123/139/107 119/137/107
f 122/142/108 126/145/108 121/138/108
f 132/146/109 126/145/109 127/147/109
f 128/141/110 132/146/110 127/147/110
f 126/145/111 130/148/111 125/143/111
f 124/144/112 133/149/112 128/141/112
f 129/150/113 138/151/113 133/149/113
f 137/152/114 131/153/114 132/146/114
f 133/149/115 137/152/115 132/146/115
f 131/153/116 135/154/116 130/148/116
f 134/155/117 143/88/117 138/151/117
f 142/90/118 136/156/118 137/152/118
f 138/151/119 142/90/119 137/152/119
f 141/91/120 135/154/120 136/156/120
f 139/92/60 119/137/60 81/39/60
f 120/140/61 140/93/61 82/94/61
f 25/1/1 29/24/1 102/2/1
f 58/4/2 62/13/2 4/5/2
f 26/9/3 22/51/3 24/7/3
f 24/7/3 5/10/3 7/17/3
f 7/17/3 27/8/3 24/7/3
f 1/6/4 4/5/4 5/10/4
f 23/52/5 3/12/5 24/7/5
f 2/11/5 5/10/5 24/7/5
f 62/13/6 65/106/6 6/14/6
f 3/12/7 23/52/7 92/15/7
f 4/5/8 6/14/8 7/17/8
f 103/18/9 28/26/9 12/19/9
f 6/14/10 65/106/10 68/21/10
f 29/24/11 25/1/11 7/17/11
f 27/8/11 7/17/11 25/1/11
f 9/23/11 30/53/11 29/24/11
f 6/14/12 8/22/12 9/23/12
f 12/19/13 28/26/13 11/25/13
f 30/53/13 9/23/13 28/26/13
f 8/22/14 10/27/14 11/25/14
f 68/21/15 72/32/15 10/27/15
f 12/19/16 15/31/16 76/28/16
f 11/25/16 10/27/16 13/29/16
f 11/25/16 14/30/16 15/31/16
f 72/32/16 77/157/16 13/29/16
f 14/33/17 17/41/17 18/34/17
f 77/36/18 82/94/18 16/37/18
f 15/35/19 18/34/19 81/39/19
f 13/38/20 16/37/20 17/41/20
f 2/11/21 3/12/21 21/42/21
f 1/6/22 19/45/22 87/44/22
f 57/16/23 86/158/23 21/42/23
f 2/11/24 20/43/24 19/45/24
f 21/46/25 86/159/25 91/47/25
f 19/49/25 20/48/25 91/47/25
f 28/26/29 35/55/29 36/54/29
f 103/18/121 117/65/121 35/55/121
f 92/15/122 23/52/122 32/56/122
f 22/51/32 26/9/32 97/58/32
f 114/57/123 32/56/123 31/60/123
f 34/62/124 33/67/124 115/63/124
f 36/54/125 35/55/125 117/65/125
f 98/3/126 115/63/126 33/67/126
f 25/1/37 33/67/37 34/62/37
f 93/59/127 113/61/127 31/60/127
f 23/52/39 22/51/39 31/60/39
f 102/2/128 29/24/128 36/54/128
f 97/58/129 26/9/129 34/62/129
f 18/34/130 41/71/130 37/68/130
f 17/41/131 16/37/131 39/69/131
f 17/41/132 40/70/132 41/71/132
f 16/37/133 82/94/133 38/72/133
f 40/70/134 45/77/134 46/73/134
f 39/69/135 38/72/135 43/74/135
f 41/71/136 46/73/136 42/76/136
f 40/70/137 39/69/137 44/75/137
f 44/75/50 49/81/50 50/78/50
f 46/73/51 45/77/51 50/78/51
f 44/75/111 43/74/111 48/80/111
f 42/76/138 46/73/138 51/79/138
f 47/82/139 51/79/139 56/83/139
f 49/81/53 54/87/53 55/85/53
f 51/79/54 50/78/54 55/85/54
f 49/81/116 48/80/116 53/86/116
f 52/84/140 56/83/140 143/88/140
f 54/87/141 141/91/141 142/90/141
f 56/83/142 55/85/142 142/90/142
f 53/86/143 140/93/143 141/91/143
f 37/68/60 42/76/60 139/92/60
f 140/93/61 53/86/61 38/72/61
f 102/2/62 105/107/62 99/95/62
f 63/96/63 62/13/63 58/4/63
f 96/100/64 94/127/64 100/129/64
f 100/129/64 101/98/64 96/100/64
f 67/99/64 64/101/64 96/100/64
f 64/101/65 63/96/65 59/97/65
f 60/102/66 61/104/66 96/100/66
f 95/128/66 96/100/66 61/104/66
f 66/103/67 65/106/67 62/13/67
f 92/15/68 95/128/68 61/104/68
f 67/99/69 66/103/69 63/96/69
f 71/20/70 75/111/70 104/105/70
f 66/103/71 69/108/71 68/21/71
f 101/98/72 99/95/72 67/99/72
f 105/107/72 106/130/72 70/110/72
f 70/110/72 67/99/72 105/107/72
f 67/99/73 70/110/73 69/108/73
f 106/130/74 104/105/74 70/110/74
f 75/111/74 74/109/74 104/105/74
f 74/109/75 73/113/75 69/108/75
f 69/108/76 73/113/76 72/32/76
f 76/28/16 80/114/16 75/111/16
f 79/112/16 78/115/16 73/113/16
f 80/114/16 79/112/16 74/109/16
f 78/115/16 77/157/16 72/32/16
f 85/116/77 84/121/77 79/117/77
f 83/119/78 82/94/78 77/36/78
f 81/39/79 85/116/79 80/118/79
f 84/121/80 83/119/80 78/120/80
f 60/102/81 89/160/81 90/122/81
f 87/44/82 88/123/82 59/97/82
f 90/122/83 86/158/83 57/16/83
f 88/123/84 89/160/84 60/102/84
f 91/47/25 86/159/25 90/124/25
f 91/47/25 89/125/25 88/126/25
f 112/131/88 111/132/88 104/105/88
f 111/132/144 117/65/144 103/18/144
f 92/15/145 114/57/145 108/133/145
f 97/58/91 100/129/91 94/127/91
f 114/57/146 113/61/146 107/134/146
f 115/63/147 109/136/147 110/135/147
f 117/65/148 111/132/148 112/131/148
f 109/136/149 115/63/149 98/3/149
f 110/135/96 109/136/96 99/95/96
f 107/134/150 113/61/150 93/59/150
f 95/128/98 108/133/98 107/134/98
f 102/2/151 118/66/151 112/131/151
f 97/58/152 116/64/152 110/135/152
f 119/137/153 123/139/153 85/116/153
f 84/121/154 122/142/154 121/138/154
f 123/139/155 122/142/155 84/121/155
f 83/119/156 121/138/156 120/140/156
f 128/141/157 127/147/157 122/142/157
f 121/138/158 126/145/158 125/143/158
f 124/144/159 128/141/159 123/139/159
f 122/142/160 127/147/160 126/145/160
f 132/146/109 131/153/109 126/145/109
f 128/141/110 133/149/110 132/146/110
f 126/145/161 131/153/161 130/148/161
f 124/144/25 129/150/25 133/149/25
f 129/150/25 134/155/25 138/151/25
f 137/152/114 136/156/114 131/153/114
f 133/149/115 138/151/115 137/152/115
f 131/153/162 136/156/162 135/154/162
f 134/155/163 139/89/163 143/88/163
f 142/90/164 141/91/164 136/156/164
f 138/151/165 143/88/165 142/90/165
f 141/91/166 140/93/166 135/154/166
f 139/92/60 124/144/60 119/137/60
f 120/140/61 135/154/61 140/93/61
